<?xml version="1.0" encoding="UTF-8"?>
<svg id="Camada_1" data-name="Camada 1" xmlns="http://www.w3.org/2000/svg" viewBox="0 0 280 280">
  <defs>
    <style>
      .cls-1 {
        fill: gray;
      }
    </style>
  </defs>
  <g>
    <path class="cls-1" d="M78.46,152.88c.19,1.6.6,2.73,1.23,3.4,1.12,1.2,3.19,1.8,6.21,1.8,1.77,0,3.18-.26,4.23-.79,1.04-.52,1.57-1.31,1.57-2.36s-.42-1.77-1.26-2.3c-.84-.52-3.97-1.43-9.39-2.71-3.9-.97-6.65-2.17-8.25-3.62-1.6-1.43-2.4-3.49-2.4-6.18,0-3.17,1.25-5.9,3.74-8.18s6.01-3.42,10.53-3.42,7.79.86,10.5,2.57c2.7,1.71,4.26,4.67,4.66,8.87h-8.98c-.13-1.15-.45-2.07-.98-2.74-.99-1.22-2.68-1.83-5.06-1.83-1.96,0-3.35.3-4.19.91-.83.61-1.25,1.32-1.25,2.14,0,1.03.44,1.77,1.33,2.24.88.48,4.01,1.31,9.38,2.49,3.58.84,6.26,2.11,8.05,3.81,1.76,1.72,2.65,3.88,2.65,6.46,0,3.4-1.27,6.18-3.81,8.33-2.54,2.15-6.46,3.23-11.76,3.23s-9.4-1.14-11.98-3.42c-2.58-2.28-3.87-5.18-3.87-8.71h9.11Z"/>
    <path class="cls-1" d="M107.29,117.56h8.82v25.06l11.33-12.96h11.17l-12.31,12.8,12.79,21.39h-10.93l-8.32-14.67-3.72,3.87v10.81h-8.82v-46.29Z"/>
    <path class="cls-1" d="M156.88,142.96c1.67-.21,2.87-.47,3.59-.79,1.29-.55,1.94-1.4,1.94-2.55,0-1.41-.5-2.38-1.48-2.91-.99-.54-2.44-.8-4.36-.8-2.15,0-3.67.53-4.57,1.58-.64.78-1.06,1.83-1.28,3.15h-8.67c.19-3,1.03-5.47,2.53-7.41,2.38-3.03,6.48-4.54,12.28-4.54,3.78,0,7.13.75,10.06,2.24,2.93,1.49,4.4,4.31,4.4,8.45v15.76c0,1.09.02,2.42.06,3.97.06,1.18.24,1.98.54,2.4.29.42.74.77,1.32,1.04v1.32h-9.77c-.27-.69-.46-1.34-.57-1.95-.11-.61-.19-1.3-.25-2.08-1.25,1.34-2.68,2.49-4.31,3.43-1.94,1.11-4.14,1.67-6.59,1.67-3.13,0-5.71-.89-7.75-2.66-2.04-1.77-3.06-4.29-3.06-7.55,0-4.22,1.64-7.28,4.92-9.17,1.8-1.03,4.44-1.76,7.94-2.21l3.08-.38ZM162.37,147.15c-.57.36-1.16.65-1.74.87s-1.39.43-2.41.61l-2.04.38c-1.92.34-3.29.75-4.13,1.23-1.41.82-2.12,2.09-2.12,3.81,0,1.53.43,2.64,1.3,3.32.86.68,1.91,1.02,3.15,1.02,1.96,0,3.77-.57,5.42-1.7,1.65-1.13,2.51-3.2,2.58-6.21v-3.34Z"/>
    <path class="cls-1" d="M206.86,131.47c2.25,1.86,3.37,4.94,3.37,9.25v23.13h-9.2v-20.89c0-1.81-.24-3.19-.72-4.16-.88-1.76-2.54-2.65-5.01-2.65-3.02,0-5.1,1.29-6.22,3.88-.58,1.37-.88,3.11-.88,5.23v18.59h-8.98v-34.28h8.7v5.01c1.15-1.76,2.24-3.04,3.26-3.81,1.84-1.39,4.17-2.08,7-2.08,3.54,0,6.43.93,8.68,2.79Z"/>
    <path class="cls-1" d="M236.8,130.05c1.62.91,2.93,2.18,3.94,3.8v-16.39h9.11v46.38h-8.73v-4.76c-1.28,2.04-2.74,3.52-4.38,4.44-1.64.92-3.68,1.39-6.11,1.39-4.01,0-7.39-1.62-10.13-4.87-2.74-3.24-4.11-7.41-4.11-12.49,0-5.86,1.35-10.47,4.05-13.83,2.7-3.36,6.31-5.04,10.82-5.04,2.08,0,3.93.46,5.55,1.37ZM239.01,154.52c1.32-1.89,1.99-4.34,1.99-7.34,0-4.2-1.06-7.21-3.18-9.01-1.3-1.09-2.82-1.64-4.54-1.64-2.63,0-4.55.99-5.78,2.98-1.23,1.99-1.84,4.45-1.84,7.39,0,3.17.63,5.71,1.88,7.61,1.25,1.9,3.15,2.85,5.69,2.85s4.47-.94,5.8-2.84Z"/>
    <path class="cls-1" d="M267.24,125.41h-9.11v-8.29h9.11v8.29ZM258.13,129.5h9.11v34.35h-9.11v-34.35Z"/>
  </g>
  <g>
    <path class="cls-1" d="M40.34,117.12v7.34c7.56,1.77,13.24,8.59,13.24,16.67h0c0,8.08-5.68,14.9-13.24,16.67v7.34c11.55-1.87,20.45-11.95,20.45-24.01h0c0-12.06-8.89-22.14-20.45-24.01Z"/>
    <path class="cls-1" d="M32.72,130.24c-6.63-1.41-11.88-6.59-13.31-13.13h-7.41c1.59,10.51,10.07,18.87,20.72,20.44v-7.31Z"/>
    <path class="cls-1" d="M19.42,144.7h-7.41c1.59,10.51,10.07,18.87,20.72,20.44v-7.31c-6.63-1.41-11.88-6.59-13.31-13.13Z"/>
  </g>
</svg>